<?xml version="1.0" encoding="UTF-8" standalone="no" ?>
<!DOCTYPE svg PUBLIC "-//W3C//DTD SVG 1.1//EN" "http://www.w3.org/Graphics/SVG/1.1/DTD/svg11.dtd">
<svg xmlns="http://www.w3.org/2000/svg" xmlns:xlink="http://www.w3.org/1999/xlink" version="1.1" width="1080" height="1080" viewBox="0 0 1080 1080" xml:space="preserve">
<desc>Created with Fabric.js 5.2.4</desc>
<defs>
</defs>
<g transform="matrix(1 0 0 1 540 540)" id="6e987c96-c4b1-4ed7-846a-8e18c9a07ed1"  >
<rect style="stroke: none; stroke-width: 1; stroke-dasharray: none; stroke-linecap: butt; stroke-dashoffset: 0; stroke-linejoin: miter; stroke-miterlimit: 4; fill: rgb(255,255,255); fill-rule: nonzero; opacity: 1; visibility: hidden;" vector-effect="non-scaling-stroke"  x="-540" y="-540" rx="0" ry="0" width="1080" height="1080" />
</g>
<g transform="matrix(1 0 0 1 540 540)" id="35495dde-2cb3-42b8-9824-b5ca6b7a1237"  >
</g>
<g transform="matrix(51.46 0 0 51.46 503.64 575.38)" id="d6ee5c4a-adbc-4043-94e9-2a282e6f5666"  >
<path style="stroke: rgb(0,0,0); stroke-opacity: 0; stroke-width: 0; stroke-dasharray: none; stroke-linecap: butt; stroke-dashoffset: 0; stroke-linejoin: miter; stroke-miterlimit: 4; fill: rgb(38,46,87); fill-rule: nonzero; opacity: 1;" vector-effect="non-scaling-stroke"  transform=" translate(-12, -12.24)" d="M 14 21.0001 L 14 15.0001 L 10 15.0001 L 10 21.0001 M 19 9.77818 L 19 16.2001 C 19 17.8802 19 18.7203 18.673 19.362 C 18.3854 19.9265 17.9265 20.3855 17.362 20.6731 C 16.7202 21.0001 15.8802 21.0001 14.2 21.0001 L 9.8 21.0001 C 8.11984 21.0001 7.27976 21.0001 6.63803 20.6731 C 6.07354 20.3855 5.6146 19.9265 5.32698 19.362 C 5 18.7203 5 17.8802 5 16.2001 L 5 9.77753 M 21 12.0001 L 15.5668 5.96405 C 14.3311 4.59129 13.7133 3.9049 12.9856 3.65151 C 12.3466 3.42894 11.651 3.42899 11.0119 3.65165 C 10.2843 3.90516 9.66661 4.59163 8.43114 5.96458 L 3 12.0001" stroke-linecap="round" />
</g>
<g transform="matrix(NaN NaN NaN NaN 0 0)"  >
<g style=""   >
</g>
</g>
<g transform="matrix(NaN NaN NaN NaN 0 0)"  >
<g style=""   >
</g>
</g>
</svg>