<?xml version="1.0" encoding="UTF-8" standalone="no" ?>
<!DOCTYPE svg PUBLIC "-//W3C//DTD SVG 1.1//EN" "http://www.w3.org/Graphics/SVG/1.1/DTD/svg11.dtd">
<svg xmlns="http://www.w3.org/2000/svg" xmlns:xlink="http://www.w3.org/1999/xlink" version="1.1" width="1080" height="1080" viewBox="0 0 1080 1080" xml:space="preserve">
<desc>Created with Fabric.js 5.2.4</desc>
<defs>
</defs>
<rect x="0" y="0" width="100%" height="100%" fill="transparent"></rect>
<g transform="matrix(1 0 0 1 540 540)" id="15468695-841c-43f7-87e3-33ae583ab84b"  >
<rect style="stroke: none; stroke-width: 1; stroke-dasharray: none; stroke-linecap: butt; stroke-dashoffset: 0; stroke-linejoin: miter; stroke-miterlimit: 4; fill: rgb(255,255,255); fill-rule: nonzero; opacity: 1; visibility: hidden;" vector-effect="non-scaling-stroke"  x="-540" y="-540" rx="0" ry="0" width="1080" height="1080" />
</g>
<g transform="matrix(0 0 0 0 0 0)" id="4c531cb9-6285-4039-97f4-879e040b729c"  >
</g>
<g transform="matrix(2.55 0 0 2.55 540 540)"  >
<g style="" vector-effect="non-scaling-stroke"   >
		<g transform="matrix(1 0 0 1 -0.57 -0.57)"  >
<ellipse style="stroke: rgb(0,0,0); stroke-opacity: 0; stroke-width: 1; stroke-dasharray: none; stroke-linecap: butt; stroke-dashoffset: 0; stroke-linejoin: miter; stroke-miterlimit: 4; fill: rgb(221,232,244); fill-rule: nonzero; opacity: 1;" vector-effect="non-scaling-stroke"  cx="0" cy="0" rx="205.305" ry="205.305" />
</g>
		<g transform="matrix(0.78 0 0 0.78 -0.36 -0.36)"  >
<path style="stroke: none; stroke-width: 1; stroke-dasharray: none; stroke-linecap: butt; stroke-dashoffset: 0; stroke-linejoin: miter; stroke-miterlimit: 4; fill: rgb(135,157,179); fill-rule: nonzero; opacity: 1;" vector-effect="non-scaling-stroke"  transform=" translate(-269.02, -269.02)" d="M 269.022 0 C 120.689 0 0 120.677 0 269.022 C 0 417.36699999999996 120.689 538.044 269.022 538.044 C 417.355 538.044 538.044 417.36699999999996 538.044 269.022 C 538.044 120.67700000000002 417.354 0 269.022 0 z M 467.811 124.503 L 456.30899999999997 124.503 C 451.347 124.503 446.95899999999995 127.707 445.429 132.418 L 420.775 208.294 L 356.293 236.631 L 280.46500000000003 181.547 L 280.46500000000003 105.50399999999999 L 344.456 59.04099999999999 C 348.473 56.12399999999999 350.147 50.95799999999999 348.617 46.246999999999986 L 344.97 35.01999999999998 C 394.804 51.234 437.56 82.99 467.811 124.503 z M 193.086 35.009 L 189.43900000000002 46.236000000000004 C 187.90900000000002 50.959 189.58200000000002 56.112 193.60000000000002 59.03 L 257.579 105.493 L 257.579 181.536 L 181.751 236.62 L 117.257 208.27100000000002 L 92.59100000000001 132.395 C 91.061 127.66000000000001 86.661 124.48 81.71100000000001 124.48 L 70.232 124.48 C 100.482 82.99 143.251 51.234 193.086 35.009 z M 22.909 268.83 L 32.546 275.837 C 34.555 277.284 36.91 278.037 39.277 278.037 C 41.632 278.037 44 277.296 46.008 275.837 L 109.37700000000001 229.79199999999997 L 173.859 258.14099999999996 L 203.116 348.138 L 164.126 394.565 L 84.568 394.565 C 79.606 394.565 75.218 397.769 73.688 402.48 L 70.137 413.396 C 40.569 372.80400000000003 22.897 322.993 22.897 269.021 C 22.897 268.95 22.909 268.89 22.909 268.83 z M 192.894 502.963 L 202.423 496.004 C 206.44 493.11 208.126 487.921 206.596 483.223 L 182.312 408.531 L 221.30200000000002 362.128 L 316.73900000000003 362.128 L 355.69300000000004 408.531 L 331.42100000000005 483.235 C 329.8910000000001 487.958 331.588 493.111 335.60600000000005 496.029 L 345.13500000000005 502.964 C 321.15000000000003 510.772 295.59900000000005 515.16 269.03200000000004 515.16 C 242.442 515.158 216.891 510.794 192.894 502.963 z M 467.894 413.432 L 464.343 402.48 C 462.80100000000004 397.757 458.401 394.577 453.451 394.577 L 373.904 394.589 L 334.95 348.174 L 364.18399999999997 258.166 L 428.68899999999996 229.829 L 492.04699999999997 275.838 C 494.056 277.30800000000005 496.41099999999994 278.05 498.779 278.05 C 501.146 278.05 503.514 277.309 505.511 275.838 L 515.148 268.84400000000005 C 515.148 268.90400000000005 515.16 268.96400000000006 515.16 269.035 C 515.146 322.993 497.451 372.804 467.894 413.432 z" stroke-linecap="round" />
</g>
		<g transform="matrix(1 0 0 1 -2.41 33.86)"  >
<rect style="stroke: rgb(0,0,0); stroke-opacity: 0; stroke-width: 1; stroke-dasharray: none; stroke-linecap: butt; stroke-dashoffset: 0; stroke-linejoin: miter; stroke-miterlimit: 4; fill: rgb(255,255,255); fill-rule: nonzero; opacity: 1;" vector-effect="non-scaling-stroke"  x="-38.555" y="-18.81" rx="18.809" ry="18.809" width="77.11" height="37.62" />
</g>
		<g transform="matrix(1 0 0 1 -1.6 -20.14)"  >
<ellipse style="stroke: rgb(255,255,255); stroke-opacity: 0; stroke-width: 1; stroke-dasharray: none; stroke-linecap: butt; stroke-dashoffset: 0; stroke-linejoin: miter; stroke-miterlimit: 4; fill: rgb(255,255,255); fill-rule: nonzero; opacity: 1;" vector-effect="non-scaling-stroke"  cx="0" cy="0" rx="21.337" ry="21.337" />
</g>
		<g transform="matrix(1 0 0 1 165.93 -32.58)"  >
<rect style="stroke: rgb(0,0,0); stroke-opacity: 0; stroke-width: 1; stroke-dasharray: none; stroke-linecap: butt; stroke-dashoffset: 0; stroke-linejoin: miter; stroke-miterlimit: 4; fill: rgb(221,232,244); fill-rule: nonzero; opacity: 1;" vector-effect="non-scaling-stroke"  x="-26.16" y="-12.76" rx="12.76" ry="12.76" width="52.32" height="25.52" />
</g>
		<g transform="matrix(1 0 0 1 166.47 -69.23)"  >
<ellipse style="stroke: rgb(255,255,255); stroke-opacity: 0; stroke-width: 1; stroke-dasharray: none; stroke-linecap: butt; stroke-dashoffset: 0; stroke-linejoin: miter; stroke-miterlimit: 4; fill: rgb(221,232,244); fill-rule: nonzero; opacity: 1;" vector-effect="non-scaling-stroke"  cx="0" cy="0" rx="14.475" ry="14.475" />
</g>
		<g transform="matrix(1 0 0 1 -0.02 -152.1)"  >
<rect style="stroke: rgb(0,0,0); stroke-opacity: 0; stroke-width: 1; stroke-dasharray: none; stroke-linecap: butt; stroke-dashoffset: 0; stroke-linejoin: miter; stroke-miterlimit: 4; fill: rgb(221,232,244); fill-rule: nonzero; opacity: 1;" vector-effect="non-scaling-stroke"  x="-26.16" y="-12.76" rx="12.76" ry="12.76" width="52.32" height="25.52" />
</g>
		<g transform="matrix(1 0 0 1 0.53 -188.75)"  >
<ellipse style="stroke: rgb(255,255,255); stroke-opacity: 0; stroke-width: 1; stroke-dasharray: none; stroke-linecap: butt; stroke-dashoffset: 0; stroke-linejoin: miter; stroke-miterlimit: 4; fill: rgb(221,232,244); fill-rule: nonzero; opacity: 1;" vector-effect="non-scaling-stroke"  cx="0" cy="0" rx="14.475" ry="14.475" />
</g>
		<g transform="matrix(1 0 0 1 104.02 152.86)"  >
<rect style="stroke: rgb(0,0,0); stroke-opacity: 0; stroke-width: 1; stroke-dasharray: none; stroke-linecap: butt; stroke-dashoffset: 0; stroke-linejoin: miter; stroke-miterlimit: 4; fill: rgb(221,232,244); fill-rule: nonzero; opacity: 1;" vector-effect="non-scaling-stroke"  x="-26.16" y="-12.76" rx="12.76" ry="12.76" width="52.32" height="25.52" />
</g>
		<g transform="matrix(1 0 0 1 104.55 116.21)"  >
<ellipse style="stroke: rgb(255,255,255); stroke-opacity: 0; stroke-width: 1; stroke-dasharray: none; stroke-linecap: butt; stroke-dashoffset: 0; stroke-linejoin: miter; stroke-miterlimit: 4; fill: rgb(221,232,244); fill-rule: nonzero; opacity: 1;" vector-effect="non-scaling-stroke"  cx="0" cy="0" rx="14.475" ry="14.475" />
</g>
		<g transform="matrix(1 0 0 1 -163.9 -32.15)"  >
<rect style="stroke: rgb(0,0,0); stroke-opacity: 0; stroke-width: 1; stroke-dasharray: none; stroke-linecap: butt; stroke-dashoffset: 0; stroke-linejoin: miter; stroke-miterlimit: 4; fill: rgb(221,232,244); fill-rule: nonzero; opacity: 1;" vector-effect="non-scaling-stroke"  x="-26.16" y="-12.76" rx="12.76" ry="12.76" width="52.32" height="25.52" />
</g>
		<g transform="matrix(1 0 0 1 -163.36 -68.79)"  >
<ellipse style="stroke: rgb(255,255,255); stroke-opacity: 0; stroke-width: 1; stroke-dasharray: none; stroke-linecap: butt; stroke-dashoffset: 0; stroke-linejoin: miter; stroke-miterlimit: 4; fill: rgb(221,232,244); fill-rule: nonzero; opacity: 1;" vector-effect="non-scaling-stroke"  cx="0" cy="0" rx="14.475" ry="14.475" />
</g>
		<g transform="matrix(1 0 0 1 -104.64 152.97)"  >
<rect style="stroke: rgb(0,0,0); stroke-opacity: 0; stroke-width: 1; stroke-dasharray: none; stroke-linecap: butt; stroke-dashoffset: 0; stroke-linejoin: miter; stroke-miterlimit: 4; fill: rgb(221,232,244); fill-rule: nonzero; opacity: 1;" vector-effect="non-scaling-stroke"  x="-26.16" y="-12.76" rx="12.76" ry="12.76" width="52.32" height="25.52" />
</g>
		<g transform="matrix(1 0 0 1 -104.09 116.33)"  >
<ellipse style="stroke: rgb(255,255,255); stroke-opacity: 0; stroke-width: 1; stroke-dasharray: none; stroke-linecap: butt; stroke-dashoffset: 0; stroke-linejoin: miter; stroke-miterlimit: 4; fill: rgb(221,232,244); fill-rule: nonzero; opacity: 1;" vector-effect="non-scaling-stroke"  cx="0" cy="0" rx="14.475" ry="14.475" />
</g>
</g>
</g>
</svg>